<?xml version="1.0" encoding="utf-8"?>
<!-- Generator: Adobe Illustrator 26.0.3, SVG Export Plug-In . SVG Version: 6.00 Build 0)  -->
<svg version="1.1" id="Layer_1" xmlns="http://www.w3.org/2000/svg" xmlns:xlink="http://www.w3.org/1999/xlink" x="0px" y="0px"
	 viewBox="0 0 50 50" style="enable-background:new 0 0 50 50;" xml:space="preserve">
<style type="text/css">
	.st0{fill:#CFA9D0;stroke:#CFA9D0;stroke-miterlimit:10;}
	.st1{fill:#DA1C5C;stroke:#CFA9D0;stroke-miterlimit:10;}
	.st2{fill:#FBB040;}
</style>
<rect x="1.48" y="35.29" class="st0" width="6.72" height="6.72"/>
<rect x="8.2" y="35.29" class="st0" width="6.72" height="6.72"/>
<rect x="14.92" y="35.29" class="st0" width="6.72" height="6.72"/>
<rect x="21.64" y="35.29" class="st0" width="6.72" height="6.72"/>
<rect x="28.36" y="35.29" class="st0" width="6.72" height="6.72"/>
<rect x="1.48" y="28.57" class="st0" width="6.72" height="6.72"/>
<rect x="8.2" y="28.57" class="st0" width="6.72" height="6.72"/>
<rect x="14.92" y="28.57" class="st1" width="6.72" height="6.72"/>
<rect x="21.64" y="28.57" class="st0" width="6.72" height="6.72"/>
<rect x="28.36" y="28.57" class="st1" width="6.72" height="6.72"/>
<rect x="1.48" y="21.85" class="st0" width="6.72" height="6.72"/>
<rect x="8.2" y="21.85" class="st0" width="6.72" height="6.72"/>
<rect x="14.92" y="21.85" class="st0" width="6.72" height="6.72"/>
<rect x="21.64" y="21.85" class="st0" width="6.72" height="6.72"/>
<rect x="28.36" y="21.85" class="st0" width="6.72" height="6.72"/>
<rect x="1.48" y="15.13" class="st0" width="6.72" height="6.72"/>
<rect x="8.2" y="15.13" class="st0" width="6.72" height="6.72"/>
<rect x="14.92" y="15.13" class="st1" width="6.72" height="6.72"/>
<rect x="21.64" y="15.13" class="st0" width="6.72" height="6.72"/>
<rect x="28.36" y="15.13" class="st1" width="6.72" height="6.72"/>
<rect x="1.48" y="8.42" class="st0" width="6.72" height="6.72"/>
<rect x="8.2" y="8.42" class="st0" width="6.72" height="6.72"/>
<rect x="14.92" y="8.42" class="st0" width="6.72" height="6.72"/>
<rect x="21.64" y="8.42" class="st0" width="6.72" height="6.72"/>
<rect x="28.36" y="8.42" class="st0" width="6.72" height="6.72"/>
<rect x="8.2" y="1.7" class="st0" width="6.72" height="6.72"/>
<rect x="14.92" y="1.7" class="st0" width="6.72" height="6.72"/>
<rect x="21.64" y="1.7" class="st0" width="6.72" height="6.72"/>
<rect x="28.36" y="1.7" class="st0" width="6.72" height="6.72"/>
<rect x="8.2" y="42.01" class="st0" width="6.72" height="6.72"/>
<rect x="14.92" y="42.01" class="st0" width="6.72" height="6.72"/>
<rect x="21.64" y="42.01" class="st0" width="6.72" height="6.72"/>
<rect x="28.36" y="42.01" class="st0" width="6.72" height="6.72"/>
<rect x="35.08" y="35.29" class="st0" width="6.72" height="6.72"/>
<rect x="41.8" y="35.29" class="st0" width="6.72" height="6.72"/>
<rect x="35.08" y="28.57" class="st0" width="6.72" height="6.72"/>
<rect x="41.8" y="28.57" class="st0" width="6.72" height="6.72"/>
<rect x="35.08" y="21.85" class="st0" width="6.72" height="6.72"/>
<rect x="41.8" y="21.85" class="st0" width="6.72" height="6.72"/>
<rect x="35.08" y="15.13" class="st0" width="6.72" height="6.72"/>
<rect x="41.8" y="15.13" class="st0" width="6.72" height="6.72"/>
<rect x="35.08" y="8.42" class="st0" width="6.72" height="6.72"/>
<rect x="41.8" y="8.42" class="st0" width="6.72" height="6.72"/>
<rect x="35.08" y="1.7" class="st0" width="6.72" height="6.72"/>
<rect x="35.08" y="42.01" class="st0" width="6.72" height="6.72"/>
<rect x="16.6" y="11.77" class="st2" width="3.36" height="4.84"/>
<rect x="30.04" y="11.77" class="st2" width="3.36" height="4.84"/>
<rect x="16.6" y="25.21" class="st2" width="3.36" height="4.84"/>
<rect x="29.97" y="25.21" class="st2" width="3.36" height="4.84"/>
</svg>
