<?xml version="1.0" encoding="utf-8"?>
<!-- Generator: Adobe Illustrator 26.0.3, SVG Export Plug-In . SVG Version: 6.00 Build 0)  -->
<svg version="1.1" id="Layer_1" xmlns="http://www.w3.org/2000/svg" xmlns:xlink="http://www.w3.org/1999/xlink" x="0px" y="0px"
	 viewBox="0 0 50 50" style="enable-background:new 0 0 50 50;" xml:space="preserve">
<style type="text/css">
	.st0{fill:#726658;stroke:#726658;stroke-miterlimit:10;}
	.st1{fill:#EACBAE;stroke:#EACBAE;stroke-miterlimit:10;}
	.st2{stroke:#000000;stroke-miterlimit:10;}
	.st3{fill:#1C75BC;stroke:#1C75BC;stroke-miterlimit:10;}
	.st4{fill:none;stroke:#000000;stroke-miterlimit:10;}
</style>
<rect x="34.67" y="40.86" transform="matrix(6.123234e-17 -1 1 6.123234e-17 -6.1971 82.2477)" class="st0" width="6.72" height="6.72"/>
<rect x="34.67" y="34.14" transform="matrix(6.123234e-17 -1 1 6.123234e-17 0.522 75.5286)" class="st0" width="6.72" height="6.72"/>
<rect x="34.67" y="27.42" transform="matrix(6.123234e-17 -1 1 6.123234e-17 7.2411 68.8095)" class="st0" width="6.72" height="6.72"/>
<rect x="34.67" y="20.71" transform="matrix(6.123234e-17 -1 1 6.123234e-17 13.9603 62.0904)" class="st1" width="6.72" height="6.72"/>
<rect x="34.67" y="13.99" transform="matrix(6.123234e-17 -1 1 6.123234e-17 20.6794 55.3713)" class="st1" width="6.72" height="6.72"/>
<rect x="27.95" y="40.86" transform="matrix(6.123234e-17 -1 1 6.123234e-17 -12.9162 75.5286)" class="st0" width="6.72" height="6.72"/>
<rect x="27.95" y="34.14" transform="matrix(6.123234e-17 -1 1 6.123234e-17 -6.1971 68.8095)" class="st0" width="6.72" height="6.72"/>
<rect x="27.95" y="27.42" transform="matrix(6.123234e-17 -1 1 6.123234e-17 0.522 62.0904)" class="st0" width="6.72" height="6.72"/>
<rect x="27.95" y="20.71" transform="matrix(6.123234e-17 -1 1 6.123234e-17 7.2411 55.3713)" class="st1" width="6.72" height="6.72"/>
<rect x="27.95" y="13.99" transform="matrix(6.123234e-17 -1 1 6.123234e-17 13.9603 48.6521)" class="st2" width="6.72" height="6.72"/>
<rect x="21.23" y="40.86" transform="matrix(6.123234e-17 -1 1 6.123234e-17 -19.6353 68.8095)" class="st0" width="6.72" height="6.72"/>
<rect x="21.23" y="34.14" transform="matrix(6.123234e-17 -1 1 6.123234e-17 -12.9162 62.0904)" class="st0" width="6.72" height="6.72"/>
<rect x="21.23" y="27.42" transform="matrix(6.123234e-17 -1 1 6.123234e-17 -6.1971 55.3713)" class="st0" width="6.72" height="6.72"/>
<rect x="21.23" y="20.71" transform="matrix(6.123234e-17 -1 1 6.123234e-17 0.522 48.6521)" class="st1" width="6.72" height="6.72"/>
<rect x="21.23" y="13.99" transform="matrix(6.123234e-17 -1 1 6.123234e-17 7.2411 41.933)" class="st1" width="6.72" height="6.72"/>
<rect x="14.51" y="40.86" transform="matrix(6.123234e-17 -1 1 6.123234e-17 -26.3544 62.0904)" class="st0" width="6.72" height="6.72"/>
<rect x="14.51" y="34.14" transform="matrix(6.123234e-17 -1 1 6.123234e-17 -19.6353 55.3713)" class="st0" width="6.72" height="6.72"/>
<rect x="14.51" y="27.42" transform="matrix(6.123234e-17 -1 1 6.123234e-17 -12.9162 48.6521)" class="st0" width="6.72" height="6.72"/>
<rect x="14.51" y="20.71" transform="matrix(6.123234e-17 -1 1 6.123234e-17 -6.1971 41.933)" class="st1" width="6.72" height="6.72"/>
<rect x="14.51" y="13.99" transform="matrix(6.123234e-17 -1 1 6.123234e-17 0.522 35.2139)" class="st2" width="6.72" height="6.72"/>
<rect x="7.79" y="40.86" transform="matrix(6.123234e-17 -1 1 6.123234e-17 -33.0736 55.3713)" class="st0" width="6.72" height="6.72"/>
<rect x="7.79" y="34.14" transform="matrix(6.123234e-17 -1 1 6.123234e-17 -26.3544 48.6521)" class="st0" width="6.72" height="6.72"/>
<rect x="7.79" y="27.42" transform="matrix(6.123234e-17 -1 1 6.123234e-17 -19.6353 41.933)" class="st0" width="6.72" height="6.72"/>
<rect x="7.79" y="20.71" transform="matrix(6.123234e-17 -1 1 6.123234e-17 -12.9162 35.2139)" class="st1" width="6.72" height="6.72"/>
<rect x="7.79" y="13.99" transform="matrix(-2.708332e-13 -1 1 -2.708332e-13 -6.1971 28.4948)" class="st1" width="6.72" height="6.72"/>
<rect x="1.07" y="12.96" transform="matrix(3.464101e-07 1 -1 3.464101e-07 20.75 11.8905)" class="st3" width="6.72" height="6.72"/>
<rect x="1.07" y="19.68" transform="matrix(3.464101e-07 1 -1 3.464101e-07 27.4691 18.6096)" class="st3" width="6.72" height="6.72"/>
<rect x="1.07" y="33.12" transform="matrix(3.464101e-07 1 -1 3.464101e-07 40.9074 32.0479)" class="st3" width="6.72" height="6.72"/>
<rect x="42.21" y="12.96" transform="matrix(3.464104e-07 1 -1 3.464104e-07 61.8905 -29.25)" class="st3" width="6.72" height="6.72"/>
<rect x="-0.61" y="28.08" transform="matrix(3.464102e-07 1 -1 3.464102e-07 35.868 27.0085)" class="st3" width="10.08" height="6.72"/>
<rect x="42.21" y="19.68" transform="matrix(3.464101e-07 1 -1 3.464101e-07 68.6096 -22.5309)" class="st3" width="6.72" height="6.72"/>
<rect x="42.21" y="33.12" transform="matrix(3.464104e-07 1 -1 3.464104e-07 82.0479 -9.0927)" class="st3" width="6.72" height="6.72"/>
<rect x="40.86" y="27.75" transform="matrix(3.464102e-07 1 -1 3.464102e-07 76.6809 -14.4596)" class="st3" width="9.42" height="6.72"/>
<rect x="34.67" y="7.27" transform="matrix(6.123234e-17 -1 1 6.123234e-17 27.3985 48.6521)" class="st3" width="6.72" height="6.72"/>
<rect x="34.67" y="0.55" transform="matrix(6.123234e-17 -1 1 6.123234e-17 34.1176 41.933)" class="st3" width="6.72" height="6.72"/>
<rect x="27.95" y="7.27" transform="matrix(6.123234e-17 -1 1 6.123234e-17 20.6794 41.933)" class="st3" width="6.72" height="6.72"/>
<rect x="27.95" y="0.55" transform="matrix(6.123234e-17 -1 1 6.123234e-17 27.3985 35.2139)" class="st3" width="6.72" height="6.72"/>
<rect x="21.23" y="7.27" transform="matrix(6.123234e-17 -1 1 6.123234e-17 13.9603 35.2139)" class="st3" width="6.72" height="6.72"/>
<rect x="21.23" y="0.55" transform="matrix(6.123234e-17 -1 1 6.123234e-17 20.6794 28.4948)" class="st3" width="6.72" height="6.72"/>
<rect x="14.51" y="7.27" transform="matrix(6.123234e-17 -1 1 6.123234e-17 7.2411 28.4948)" class="st3" width="6.72" height="6.72"/>
<rect x="14.51" y="0.55" transform="matrix(6.123234e-17 -1 1 6.123234e-17 13.9603 21.7757)" class="st3" width="6.72" height="6.72"/>
<rect x="7.79" y="7.27" transform="matrix(6.123234e-17 -1 1 6.123234e-17 0.522 21.7757)" class="st3" width="6.72" height="6.72"/>
<rect x="7.79" y="0.55" transform="matrix(6.123234e-17 -1 1 6.123234e-17 7.2411 15.0566)" class="st3" width="6.72" height="6.72"/>
<rect x="1.07" y="39.84" transform="matrix(3.464101e-07 1 -1 3.464101e-07 47.6265 38.767)" class="st1" width="6.72" height="6.72"/>
<rect x="42.21" y="39.84" transform="matrix(3.464101e-07 1 -1 3.464101e-07 88.767 -2.3736)" class="st1" width="6.72" height="6.72"/>
<rect x="13.56" y="11.98" class="st4" width="9.77" height="6.51"/>
<rect x="27.19" y="11.98" transform="matrix(-1 -1.224647e-16 1.224647e-16 -1 64.1512 30.468)" class="st4" width="9.77" height="6.51"/>
</svg>
