<?xml version="1.0" encoding="utf-8"?>
<!-- Generator: Adobe Illustrator 26.0.3, SVG Export Plug-In . SVG Version: 6.00 Build 0)  -->
<svg version="1.1" id="Layer_1" xmlns="http://www.w3.org/2000/svg" xmlns:xlink="http://www.w3.org/1999/xlink" x="0px" y="0px"
	 viewBox="0 0 50 50" style="enable-background:new 0 0 50 50;" xml:space="preserve">
<style type="text/css">
	.st0{fill:#8B5E3C;stroke:#8B5E3C;stroke-miterlimit:10;}
	.st1{fill:#EACBAE;stroke:#EACBAE;stroke-miterlimit:10;}
	.st2{stroke:#000000;stroke-miterlimit:10;}
	.st3{fill:#2E3192;}
	.st4{fill:#2E3192;stroke:#2E3192;stroke-miterlimit:10;}
</style>
<rect x="0.51" y="34.22" class="st0" width="6.72" height="6.72"/>
<rect x="7.23" y="34.22" class="st0" width="6.72" height="6.72"/>
<rect x="13.95" y="34.22" class="st0" width="6.72" height="6.72"/>
<rect x="20.67" y="34.22" class="st0" width="6.72" height="6.72"/>
<rect x="27.39" y="34.22" class="st1" width="6.72" height="6.72"/>
<rect x="0.51" y="27.51" class="st0" width="6.72" height="6.72"/>
<rect x="7.23" y="27.51" class="st0" width="6.72" height="6.72"/>
<rect x="13.95" y="27.51" class="st0" width="6.72" height="6.72"/>
<rect x="20.67" y="27.51" class="st0" width="6.72" height="6.72"/>
<rect x="27.39" y="27.51" class="st2" width="6.72" height="6.72"/>
<rect x="0.51" y="20.79" class="st0" width="6.72" height="6.72"/>
<rect x="7.23" y="20.79" class="st0" width="6.72" height="6.72"/>
<rect x="13.95" y="20.79" class="st0" width="6.72" height="6.72"/>
<rect x="20.67" y="20.79" class="st0" width="6.72" height="6.72"/>
<rect x="27.39" y="20.79" class="st1" width="6.72" height="6.72"/>
<rect x="0.51" y="14.07" class="st0" width="6.72" height="6.72"/>
<rect x="7.23" y="14.07" class="st0" width="6.72" height="6.72"/>
<rect x="13.95" y="14.07" class="st0" width="6.72" height="6.72"/>
<rect x="20.67" y="14.07" class="st0" width="6.72" height="6.72"/>
<rect x="27.39" y="14.07" class="st2" width="6.72" height="6.72"/>
<rect x="0.51" y="7.35" class="st0" width="6.72" height="6.72"/>
<rect x="7.23" y="7.35" class="st0" width="6.72" height="6.72"/>
<rect x="13.95" y="7.35" class="st0" width="6.72" height="6.72"/>
<rect x="20.67" y="7.35" class="st0" width="6.72" height="6.72"/>
<rect x="27.39" y="7.35" class="st1" width="6.72" height="6.72"/>
<rect x="7.23" y="0.63" class="st3" width="6.72" height="6.72"/>
<rect x="13.95" y="0.63" class="st3" width="6.72" height="6.72"/>
<rect x="20.67" y="0.63" class="st3" width="6.72" height="6.72"/>
<rect x="27.39" y="0.63" class="st3" width="6.72" height="6.72"/>
<rect x="7.23" y="40.94" class="st4" width="6.72" height="6.72"/>
<rect x="13.95" y="40.94" class="st4" width="6.72" height="6.72"/>
<rect x="20.67" y="40.94" class="st4" width="6.72" height="6.72"/>
<rect x="27.39" y="40.94" class="st4" width="6.72" height="6.72"/>
<rect x="34.11" y="34.22" class="st3" width="6.72" height="6.72"/>
<rect x="40.82" y="34.22" class="st2" width="6.72" height="6.72"/>
<rect x="34.11" y="27.51" class="st3" width="6.72" height="6.72"/>
<rect x="40.82" y="27.51" class="st2" width="6.72" height="6.72"/>
<rect x="34.11" y="20.79" class="st3" width="6.72" height="6.72"/>
<rect x="40.82" y="20.79" class="st3" width="6.72" height="6.72"/>
<rect x="34.11" y="14.07" class="st3" width="6.72" height="6.72"/>
<rect x="40.82" y="14.07" class="st2" width="6.72" height="6.72"/>
<rect x="34.11" y="7.35" class="st3" width="6.72" height="6.72"/>
<rect x="40.82" y="7.35" class="st2" width="6.72" height="6.72"/>
<rect x="34.11" y="0.63" class="st1" width="6.72" height="6.72"/>
<rect x="34.11" y="40.94" class="st1" width="6.72" height="6.72"/>
</svg>
