<?xml version="1.0" encoding="utf-8"?>
<!-- Generator: Adobe Illustrator 26.0.3, SVG Export Plug-In . SVG Version: 6.00 Build 0)  -->
<svg version="1.1" id="Layer_1" xmlns="http://www.w3.org/2000/svg" xmlns:xlink="http://www.w3.org/1999/xlink" x="0px" y="0px"
	 viewBox="0 0 50 50" style="enable-background:new 0 0 50 50;" xml:space="preserve">
<style type="text/css">
	.st0{fill:#755742;stroke:#755742;stroke-miterlimit:10;}
	.st1{fill:#EACBAE;stroke:#EACBAE;stroke-miterlimit:10;}
	.st2{stroke:#000000;stroke-miterlimit:10;}
	.st3{fill:#27AAE1;stroke:#27AAE1;stroke-miterlimit:10;}
</style>
<rect x="41.11" y="8.62" transform="matrix(-1 3.464104e-07 -3.464104e-07 -1 88.9379 23.9494)" class="st0" width="6.72" height="6.72"/>
<rect x="34.39" y="8.62" transform="matrix(-1 3.464104e-07 -3.464104e-07 -1 75.4997 23.9494)" class="st0" width="6.72" height="6.72"/>
<rect x="27.67" y="8.62" transform="matrix(-1 3.464104e-07 -3.464104e-07 -1 62.0615 23.9494)" class="st0" width="6.72" height="6.72"/>
<rect x="20.95" y="8.62" transform="matrix(-1 3.464104e-07 -3.464104e-07 -1 48.6232 23.9494)" class="st1" width="6.72" height="6.72"/>
<rect x="14.23" y="8.62" transform="matrix(-1 3.464104e-07 -3.464104e-07 -1 35.185 23.9494)" class="st1" width="6.72" height="6.72"/>
<rect x="41.11" y="15.33" transform="matrix(-1 3.464104e-07 -3.464104e-07 -1 88.9379 37.3876)" class="st0" width="6.72" height="6.72"/>
<rect x="34.39" y="15.33" transform="matrix(-1 3.464104e-07 -3.464104e-07 -1 75.4997 37.3876)" class="st0" width="6.72" height="6.72"/>
<rect x="27.67" y="15.33" transform="matrix(-1 3.464104e-07 -3.464104e-07 -1 62.0615 37.3876)" class="st0" width="6.72" height="6.72"/>
<rect x="20.95" y="15.33" transform="matrix(-1 3.464104e-07 -3.464104e-07 -1 48.6232 37.3876)" class="st1" width="6.72" height="6.72"/>
<rect x="14.23" y="15.33" transform="matrix(-1 3.464104e-07 -3.464104e-07 -1 35.185 37.3876)" class="st2" width="6.72" height="6.72"/>
<rect x="41.11" y="22.05" transform="matrix(-1 3.464104e-07 -3.464104e-07 -1 88.9379 50.8258)" class="st0" width="6.72" height="6.72"/>
<rect x="34.39" y="22.05" transform="matrix(-1 3.464104e-07 -3.464104e-07 -1 75.4997 50.8258)" class="st0" width="6.72" height="6.72"/>
<rect x="27.67" y="22.05" transform="matrix(-1 3.464102e-07 -3.464102e-07 -1 62.0615 50.8258)" class="st0" width="6.72" height="6.72"/>
<rect x="20.95" y="22.05" transform="matrix(-1 3.464104e-07 -3.464104e-07 -1 48.6232 50.8258)" class="st1" width="6.72" height="6.72"/>
<rect x="14.23" y="22.05" transform="matrix(-1 3.464104e-07 -3.464104e-07 -1 35.185 50.8258)" class="st1" width="6.72" height="6.72"/>
<rect x="41.11" y="28.77" transform="matrix(-1 3.464104e-07 -3.464104e-07 -1 88.938 64.2641)" class="st0" width="6.72" height="6.72"/>
<rect x="34.39" y="28.77" transform="matrix(-1 3.464104e-07 -3.464104e-07 -1 75.4997 64.2641)" class="st0" width="6.72" height="6.72"/>
<rect x="27.67" y="28.77" transform="matrix(-1 3.464104e-07 -3.464104e-07 -1 62.0615 64.2641)" class="st0" width="6.72" height="6.72"/>
<rect x="20.95" y="28.77" transform="matrix(-1 3.464104e-07 -3.464104e-07 -1 48.6233 64.2641)" class="st1" width="6.72" height="6.72"/>
<rect x="14.23" y="28.77" transform="matrix(-1 3.464104e-07 -3.464104e-07 -1 35.185 64.2641)" class="st2" width="6.72" height="6.72"/>
<rect x="41.11" y="35.49" transform="matrix(-1 3.464104e-07 -3.464104e-07 -1 88.938 77.7023)" class="st0" width="6.72" height="6.72"/>
<rect x="34.39" y="35.49" transform="matrix(-1 3.464104e-07 -3.464104e-07 -1 75.4997 77.7023)" class="st0" width="6.72" height="6.72"/>
<rect x="27.67" y="35.49" transform="matrix(-1 3.464104e-07 -3.464104e-07 -1 62.0615 77.7023)" class="st0" width="6.72" height="6.72"/>
<rect x="20.95" y="35.49" transform="matrix(-1 3.464104e-07 -3.464104e-07 -1 48.6233 77.7023)" class="st1" width="6.72" height="6.72"/>
<rect x="14.23" y="35.49" transform="matrix(-1 3.464109e-07 -3.464109e-07 -1 35.185 77.7023)" class="st1" width="6.72" height="6.72"/>
<rect x="13.21" y="42.21" class="st3" width="6.72" height="6.72"/>
<rect x="19.93" y="42.21" class="st3" width="6.72" height="6.72"/>
<rect x="33.36" y="42.21" class="st3" width="6.72" height="6.72"/>
<rect x="13.21" y="1.07" class="st3" width="6.72" height="6.72"/>
<rect x="26.65" y="42.21" class="st3" width="10.08" height="6.72"/>
<rect x="19.93" y="1.07" class="st3" width="6.72" height="6.72"/>
<rect x="33.36" y="1.07" class="st3" width="6.72" height="6.72"/>
<rect x="26.65" y="1.07" class="st3" width="9.42" height="6.72"/>
<rect x="7.51" y="8.62" transform="matrix(-1 3.464104e-07 -3.464104e-07 -1 21.7468 23.9494)" class="st3" width="6.72" height="6.72"/>
<rect x="0.79" y="8.62" transform="matrix(-1 3.464104e-07 -3.464104e-07 -1 8.3085 23.9494)" class="st3" width="6.72" height="6.72"/>
<rect x="7.51" y="15.33" transform="matrix(-1 3.464104e-07 -3.464104e-07 -1 21.7468 37.3876)" class="st3" width="6.72" height="6.72"/>
<rect x="0.79" y="15.33" transform="matrix(-1 3.464104e-07 -3.464104e-07 -1 8.3085 37.3876)" class="st3" width="6.72" height="6.72"/>
<rect x="7.51" y="22.05" transform="matrix(-1 3.464104e-07 -3.464104e-07 -1 21.7468 50.8259)" class="st3" width="6.72" height="6.72"/>
<rect x="0.79" y="22.05" transform="matrix(-1 3.464104e-07 -3.464104e-07 -1 8.3086 50.8259)" class="st3" width="6.72" height="6.72"/>
<rect x="7.51" y="28.77" transform="matrix(-1 3.464104e-07 -3.464104e-07 -1 21.7468 64.2641)" class="st3" width="6.72" height="6.72"/>
<rect x="0.79" y="28.77" transform="matrix(-1 3.464104e-07 -3.464104e-07 -1 8.3086 64.2641)" class="st3" width="6.72" height="6.72"/>
<rect x="7.51" y="35.49" transform="matrix(-1 3.464104e-07 -3.464104e-07 -1 21.7468 77.7023)" class="st3" width="6.72" height="6.72"/>
<rect x="0.79" y="35.49" transform="matrix(-1 3.464104e-07 -3.464104e-07 -1 8.3086 77.7023)" class="st3" width="6.72" height="6.72"/>
<rect x="40.08" y="42.21" class="st1" width="6.72" height="6.72"/>
<rect x="40.08" y="1.07" class="st1" width="6.72" height="6.72"/>
<rect x="13.21" y="5.34" class="st0" width="34.62" height="5.54"/>
<rect x="13.21" y="38.85" class="st0" width="34.62" height="5.54"/>
</svg>
