<?xml version="1.0" encoding="utf-8"?>
<!-- Generator: Adobe Illustrator 26.0.3, SVG Export Plug-In . SVG Version: 6.00 Build 0)  -->
<svg version="1.1" id="Layer_1" xmlns="http://www.w3.org/2000/svg" xmlns:xlink="http://www.w3.org/1999/xlink" x="0px" y="0px"
	 viewBox="0 0 50 50" style="enable-background:new 0 0 50 50;" xml:space="preserve">
<style type="text/css">
	.st0{fill:#755742;stroke:#755742;stroke-miterlimit:10;}
	.st1{fill:#EACBAE;stroke:#EACBAE;stroke-miterlimit:10;}
	.st2{stroke:#000000;stroke-miterlimit:10;}
	.st3{fill:#14AA4B;stroke:#14AA4B;stroke-miterlimit:10;}
	.st4{fill:none;stroke:#000000;stroke-miterlimit:10;}
</style>
<rect x="8.62" y="1.74" transform="matrix(-1.836970e-16 1 -1 -1.836970e-16 17.0708 -6.8786)" class="st0" width="6.72" height="6.72"/>
<rect x="8.62" y="8.46" transform="matrix(-1.836970e-16 1 -1 -1.836970e-16 23.7899 -0.1595)" class="st0" width="6.72" height="6.72"/>
<rect x="8.62" y="15.17" transform="matrix(-1.836970e-16 1 -1 -1.836970e-16 30.509 6.5596)" class="st0" width="6.72" height="6.72"/>
<rect x="8.62" y="21.89" transform="matrix(-1.836970e-16 1 -1 -1.836970e-16 37.2281 13.2787)" class="st1" width="6.72" height="6.72"/>
<rect x="8.62" y="28.61" transform="matrix(-1.836970e-16 1 -1 -1.836970e-16 43.9472 19.9978)" class="st1" width="6.72" height="6.72"/>
<rect x="15.33" y="1.74" transform="matrix(-1.836970e-16 1 -1 -1.836970e-16 23.7899 -13.5977)" class="st0" width="6.72" height="6.72"/>
<rect x="15.33" y="8.46" transform="matrix(-1.836970e-16 1 -1 -1.836970e-16 30.509 -6.8786)" class="st0" width="6.72" height="6.72"/>
<rect x="15.33" y="15.17" transform="matrix(-1.836970e-16 1 -1 -1.836970e-16 37.2281 -0.1595)" class="st0" width="6.72" height="6.72"/>
<rect x="15.33" y="21.89" transform="matrix(-1.836970e-16 1 -1 -1.836970e-16 43.9472 6.5596)" class="st1" width="6.72" height="6.72"/>
<rect x="15.33" y="28.61" transform="matrix(-1.836970e-16 1 -1 -1.836970e-16 50.6663 13.2787)" class="st2" width="6.72" height="6.72"/>
<rect x="22.05" y="1.74" transform="matrix(-1.836970e-16 1 -1 -1.836970e-16 30.509 -20.3169)" class="st0" width="6.72" height="6.72"/>
<rect x="22.05" y="8.46" transform="matrix(-1.836970e-16 1 -1 -1.836970e-16 37.2281 -13.5977)" class="st0" width="6.72" height="6.72"/>
<rect x="22.05" y="15.17" transform="matrix(-1.351868e-13 1 -1 -1.351868e-13 43.9472 -6.8786)" class="st0" width="6.72" height="6.72"/>
<rect x="22.05" y="21.89" transform="matrix(-1.836970e-16 1 -1 -1.836970e-16 50.6663 -0.1595)" class="st1" width="6.72" height="6.72"/>
<rect x="22.05" y="28.61" transform="matrix(-1.836970e-16 1 -1 -1.836970e-16 57.3855 6.5596)" class="st1" width="6.72" height="6.72"/>
<rect x="28.77" y="1.74" transform="matrix(-1.836970e-16 1 -1 -1.836970e-16 37.2281 -27.036)" class="st0" width="6.72" height="6.72"/>
<rect x="28.77" y="8.46" transform="matrix(-1.836970e-16 1 -1 -1.836970e-16 43.9472 -20.3169)" class="st0" width="6.72" height="6.72"/>
<rect x="28.77" y="15.17" transform="matrix(-1.836970e-16 1 -1 -1.836970e-16 50.6663 -13.5977)" class="st0" width="6.72" height="6.72"/>
<rect x="28.77" y="21.89" transform="matrix(-1.836970e-16 1 -1 -1.836970e-16 57.3855 -6.8786)" class="st1" width="6.72" height="6.72"/>
<rect x="28.77" y="28.61" transform="matrix(-1.836970e-16 1 -1 -1.836970e-16 64.1046 -0.1595)" class="st2" width="6.72" height="6.72"/>
<rect x="35.49" y="1.74" transform="matrix(-1.836970e-16 1 -1 -1.836970e-16 43.9472 -33.7551)" class="st0" width="6.72" height="6.72"/>
<rect x="35.49" y="8.46" transform="matrix(-1.836970e-16 1 -1 -1.836970e-16 50.6663 -27.036)" class="st0" width="6.72" height="6.72"/>
<rect x="35.49" y="15.17" transform="matrix(-1.836970e-16 1 -1 -1.836970e-16 57.3855 -20.3169)" class="st0" width="6.72" height="6.72"/>
<rect x="35.49" y="21.89" transform="matrix(-1.836970e-16 1 -1 -1.836970e-16 64.1046 -13.5977)" class="st1" width="6.72" height="6.72"/>
<rect x="35.49" y="28.61" transform="matrix(2.707107e-13 1 -1 2.707107e-13 70.8237 -6.8786)" class="st1" width="6.72" height="6.72"/>
<rect x="42.21" y="29.64" transform="matrix(-3.464101e-07 -1 1 -3.464101e-07 12.5721 78.5685)" class="st3" width="6.72" height="6.72"/>
<rect x="42.21" y="22.92" transform="matrix(-3.464101e-07 -1 1 -3.464101e-07 19.2912 71.8494)" class="st3" width="6.72" height="6.72"/>
<rect x="42.21" y="9.48" transform="matrix(-3.464101e-07 -1 1 -3.464101e-07 32.7294 58.4111)" class="st1" width="6.72" height="6.72"/>
<rect x="1.07" y="29.64" transform="matrix(-3.464104e-07 -1 1 -3.464104e-07 -28.5685 37.428)" class="st3" width="6.72" height="6.72"/>
<rect x="40.53" y="14.52" transform="matrix(-3.464102e-07 -1 1 -3.464102e-07 27.6901 63.4505)" class="st3" width="10.08" height="6.72"/>
<rect x="1.07" y="22.92" transform="matrix(-3.464101e-07 -1 1 -3.464101e-07 -21.8494 30.7088)" class="st3" width="6.72" height="6.72"/>
<rect x="1.07" y="9.48" transform="matrix(-3.464104e-07 -1 1 -3.464104e-07 -8.4111 17.2706)" class="st1" width="6.72" height="6.72"/>
<rect x="-0.28" y="14.85" transform="matrix(-3.464102e-07 -1 1 -3.464102e-07 -13.7781 22.6376)" class="st3" width="9.42" height="6.72"/>
<rect x="8.62" y="35.33" transform="matrix(-1.836970e-16 1 -1 -1.836970e-16 50.6663 26.717)" class="st3" width="6.72" height="6.72"/>
<rect x="8.62" y="42.05" transform="matrix(-1.836970e-16 1 -1 -1.836970e-16 57.3855 33.4361)" class="st3" width="6.72" height="6.72"/>
<rect x="15.33" y="35.33" transform="matrix(-1.836970e-16 1 -1 -1.836970e-16 57.3855 19.9978)" class="st3" width="6.72" height="6.72"/>
<rect x="15.33" y="42.05" transform="matrix(-1.836970e-16 1 -1 -1.836970e-16 64.1046 26.717)" class="st3" width="6.72" height="6.72"/>
<rect x="22.05" y="35.33" transform="matrix(-1.836970e-16 1 -1 -1.836970e-16 64.1046 13.2787)" class="st3" width="6.72" height="6.72"/>
<rect x="22.05" y="42.05" transform="matrix(-1.836970e-16 1 -1 -1.836970e-16 70.8237 19.9978)" class="st3" width="6.72" height="6.72"/>
<rect x="28.77" y="35.33" transform="matrix(-1.836970e-16 1 -1 -1.836970e-16 70.8237 6.5596)" class="st3" width="6.72" height="6.72"/>
<rect x="28.77" y="42.05" transform="matrix(-1.836970e-16 1 -1 -1.836970e-16 77.5428 13.2787)" class="st3" width="6.72" height="6.72"/>
<rect x="35.49" y="35.33" transform="matrix(-1.836970e-16 1 -1 -1.836970e-16 77.5428 -0.1595)" class="st3" width="6.72" height="6.72"/>
<rect x="35.49" y="42.05" transform="matrix(-1.836970e-16 1 -1 -1.836970e-16 84.2619 6.5596)" class="st3" width="6.72" height="6.72"/>
<rect x="42.21" y="2.76" transform="matrix(-3.464101e-07 -1 1 -3.464101e-07 39.4485 51.692)" class="st1" width="6.72" height="6.72"/>
<rect x="1.07" y="2.76" transform="matrix(-3.464101e-07 -1 1 -3.464101e-07 -1.692 10.5515)" class="st1" width="6.72" height="6.72"/>
<rect x="13.51" y="26.61" transform="matrix(6.123234e-17 -1 1 6.123234e-17 -13.6672 49.8695)" class="st4" width="9.18" height="10.31"/>
<rect x="27.16" y="26.61" transform="matrix(6.123234e-17 -1 1 6.123234e-17 -0.0183 63.5185)" class="st4" width="9.18" height="10.31"/>
</svg>
